<svg xmlns="http://www.w3.org/2000/svg" viewBox="0 0 192 512">
    <!--!Font Awesome Free 6.6.0 by @fontawesome - https://fontawesome.com 
         License - https://fontawesome.com/license/free 
         Copyright 2024 Fonticons, Inc.-->
    <path 
    fill="#150458" 
    d="M48 80a48 48 0 1 1 96 0A48 48 0 1 1 48 80z
        M0 224c0-17.7 14.3-32 32-32l64 0c17.7 0 32 14.3 32 32
        l0 224 32 0c17.7 0 32 14.3 32 32s-14.3 32-32 32
        L32 512c-17.7 0-32-14.3-32-32s14.3-32 32-32
        l32 0 0-192-32 0c-17.7 0-32-14.3-32-32z"/>
</svg>